<svg width="93" height="93" viewBox="0 0 93 93" fill="none" xmlns="http://www.w3.org/2000/svg">
<path d="M11.625 46.5H46.5V52.3125H11.625V46.5ZM5.8125 31.9688H34.875V37.7812H5.8125V31.9688Z" fill="#634C39"/>
<path d="M86.9521 48.2612L78.2334 27.9174C78.0096 27.3945 77.6372 26.9489 77.1624 26.6358C76.6876 26.3227 76.1313 26.1559 75.5625 26.1562H66.8438V20.3438C66.8438 19.573 66.5376 18.8337 65.9926 18.2887C65.4475 17.7437 64.7083 17.4375 63.9375 17.4375H17.4375V23.25H61.0313V59.7409C59.707 60.5098 58.548 61.5334 57.6213 62.7525C56.6945 63.9715 56.0182 65.362 55.6315 66.8438H37.3686C36.6612 64.1041 34.979 61.7166 32.6372 60.1286C30.2954 58.5406 27.4548 57.8611 24.6479 58.2177C21.841 58.5742 19.2605 59.9422 17.3901 62.0652C15.5197 64.1882 14.4877 66.9206 14.4877 69.75C14.4877 72.5794 15.5197 75.3118 17.3901 77.4348C19.2605 79.5578 21.841 80.9258 24.6479 81.2823C27.4548 81.6389 30.2954 80.9594 32.6372 79.3714C34.979 77.7834 36.6612 75.3959 37.3686 72.6562H55.6315C56.2637 75.1505 57.7095 77.3627 59.7403 78.943C61.771 80.5232 64.2707 81.3812 66.8438 81.3812C69.4169 81.3812 71.9166 80.5232 73.9473 78.943C75.978 77.3627 77.4239 75.1505 78.0561 72.6562H84.2813C85.0521 72.6562 85.7913 72.3501 86.3363 71.805C86.8813 71.26 87.1875 70.5208 87.1875 69.75V49.4062C87.1877 49.0125 87.1076 48.6229 86.9521 48.2612ZM26.1563 75.5625C25.0067 75.5625 23.8829 75.2216 22.927 74.5829C21.9712 73.9442 21.2262 73.0364 20.7862 71.9743C20.3463 70.9123 20.2312 69.7436 20.4555 68.616C20.6797 67.4885 21.2333 66.4528 22.0462 65.6399C22.8591 64.827 23.8948 64.2735 25.0223 64.0492C26.1498 63.8249 27.3185 63.94 28.3806 64.38C29.4427 64.8199 30.3505 65.5649 30.9892 66.5207C31.6279 67.4766 31.9688 68.6004 31.9688 69.75C31.9672 71.2911 31.3544 72.7686 30.2646 73.8584C29.1749 74.9481 27.6974 75.561 26.1563 75.5625ZM66.8438 31.9688H73.6444L79.8754 46.5H66.8438V31.9688ZM66.8438 75.5625C65.6942 75.5625 64.5704 75.2216 63.6145 74.5829C62.6587 73.9442 61.9137 73.0364 61.4737 71.9743C61.0338 70.9123 60.9187 69.7436 61.143 68.616C61.3672 67.4885 61.9208 66.4528 62.7337 65.6399C63.5466 64.827 64.5823 64.2735 65.7098 64.0492C66.8373 63.8249 68.006 63.94 69.0681 64.38C70.1302 64.8199 71.038 65.5649 71.6767 66.5207C72.3154 67.4766 72.6563 68.6004 72.6563 69.75C72.6547 71.2911 72.0419 72.7686 70.9521 73.8584C69.8624 74.9481 68.3849 75.561 66.8438 75.5625ZM81.375 66.8438H78.0561C77.4159 64.3544 75.9677 62.1478 73.9386 60.5699C71.9095 58.9921 69.4142 58.1321 66.8438 58.125V52.3125H81.375V66.8438Z" fill="#634C39"/>
</svg>
