<svg width="81" height="81" viewBox="0 0 81 81" fill="none" xmlns="http://www.w3.org/2000/svg">
<mask id="mask0_111_21" style="mask-type:alpha" maskUnits="userSpaceOnUse" x="0" y="0" width="81" height="81">
<rect width="80.6484" height="80.6484" fill="#D9D9D9"/>
</mask>
<g mask="url(#mask0_111_21)">
<path d="M6.7207 73.9277V13.4414C6.7207 11.5932 7.37877 10.011 8.69491 8.69491C10.011 7.37877 11.5932 6.7207 13.4414 6.7207H67.207C69.0552 6.7207 70.6374 7.37877 71.9535 8.69491C73.2697 10.011 73.9277 11.5932 73.9277 13.4414V53.7656C73.9277 55.6138 73.2697 57.196 71.9535 58.5121C70.6374 59.8282 69.0552 60.4863 67.207 60.4863H20.1621L6.7207 73.9277ZM17.3058 53.7656H67.207V13.4414H13.4414V57.546L17.3058 53.7656Z" fill="#F5F5F5"/>
</g>
</svg>
