<svg width="93" height="93" viewBox="0 0 93 93" fill="none" xmlns="http://www.w3.org/2000/svg">
<mask id="mask0_219_2983" style="mask-type:alpha" maskUnits="userSpaceOnUse" x="0" y="0" width="93" height="93">
<rect width="93" height="93" fill="#D9D9D9"/>
</mask>
<g mask="url(#mask0_219_2983)">
<path d="M31.9688 81.3749L11.625 61.0311V31.9686L31.9688 11.6249H61.0312L81.375 31.9686V61.0311L61.0312 81.3749H31.9688ZM35.4563 62.9686L46.5 51.9249L57.5438 62.9686L62.9688 57.5436L51.925 46.4999L62.9688 35.4561L57.5438 30.0311L46.5 41.0749L35.4563 30.0311L30.0312 35.4561L41.075 46.4999L30.0312 57.5436L35.4563 62.9686ZM35.2625 73.6249H57.7375L73.625 57.7374V35.2624L57.7375 19.3749H35.2625L19.375 35.2624V57.7374L35.2625 73.6249Z" fill="#634C39"/>
</g>
</svg>
