<svg width="93" height="93" viewBox="0 0 93 93" fill="none" xmlns="http://www.w3.org/2000/svg">
<path d="M7.75 62.1608C7.75 59.8319 8.26538 57.5205 9.63131 55.6353C13.6497 50.0844 24.5501 38.75 46.5 38.75C68.4519 38.75 79.3503 50.0863 83.3687 55.6353C84.7346 57.5205 85.25 59.8319 85.25 62.1608C85.25 66.229 83.6339 70.1306 80.7573 73.0073C77.8806 75.8839 73.979 77.5 69.9108 77.5H23.0892C19.021 77.5 15.1194 75.8839 12.2427 73.0073C9.36609 70.1306 7.75 66.229 7.75 62.1608Z" stroke="#634C39" stroke-width="4.16667" stroke-linecap="round" stroke-linejoin="round"/>
<path d="M23.25 17.4375V25.1875M27.125 42.625V50.375M69.75 17.4375V25.1875M65.875 42.625V50.375M46.5 13.5625V25.1875M46.5 38.75V54.25M46.5 38.75C61.628 38.75 71.5054 44.1363 77.5 49.2958M46.5 38.75C31.372 38.75 21.4946 44.1343 15.5 49.2958" stroke="#634C39" stroke-width="4.16667" stroke-linecap="round"/>
</svg>
