<svg width="93" height="93" viewBox="0 0 93 93" fill="none" xmlns="http://www.w3.org/2000/svg">
<path d="M7.75 85.25L62 31M62 31H69.75C73.8609 31 77.8033 29.367 80.7102 26.4602C83.617 23.5533 85.25 19.6109 85.25 15.5V7.75H77.5C73.3891 7.75 69.4467 9.38303 66.5398 12.2898C63.633 15.1967 62 19.1391 62 23.25V31ZM13.4463 48.5537L19.375 42.625L25.3038 48.5537C27.8357 51.0957 29.2573 54.5372 29.2573 58.125C29.2573 61.7128 27.8357 65.1543 25.3038 67.6962L19.375 73.625L13.4463 67.6962C10.9143 65.1543 9.49273 61.7128 9.49273 58.125C9.49273 54.5372 10.9143 51.0957 13.4463 48.5537ZM28.9462 33.0537L34.875 27.125L40.8037 33.0537C43.3357 35.5957 44.7573 39.0372 44.7573 42.625C44.7573 46.2128 43.3357 49.6543 40.8037 52.1963L34.875 58.125L28.9462 52.1963C26.4143 49.6543 24.9927 46.2128 24.9927 42.625C24.9927 39.0372 26.4143 35.5957 28.9462 33.0537ZM44.4463 17.5538L50.375 11.625L56.3037 17.5538C58.8357 20.0957 60.2573 23.5372 60.2573 27.125C60.2573 30.7128 58.8357 34.1543 56.3037 36.6963L50.375 42.625L44.4463 36.6963C41.9143 34.1543 40.4927 30.7128 40.4927 27.125C40.4927 23.5372 41.9143 20.0957 44.4463 17.5538Z" stroke="#634C39" stroke-width="4.16667" stroke-linecap="round" stroke-linejoin="round"/>
<path d="M44.4463 67.6962L50.375 73.6249L44.4463 79.5537C41.9043 82.0856 38.4628 83.5072 34.875 83.5072C31.2872 83.5072 27.8457 82.0856 25.3038 79.5537L19.375 73.6249L25.3038 67.6962C27.8457 65.1643 31.2872 63.7427 34.875 63.7427C38.4628 63.7427 41.9043 65.1643 44.4463 67.6962ZM59.9463 52.1962L65.875 58.1249L59.9463 64.0537C57.4043 66.5856 53.9628 68.0072 50.375 68.0072C46.7872 68.0072 43.3457 66.5856 40.8037 64.0537L34.875 58.1249L40.8037 52.1962C43.3457 49.6643 46.7872 48.2427 50.375 48.2427C53.9628 48.2427 57.4043 49.6643 59.9463 52.1962ZM75.4462 36.6962L81.375 42.6249L75.4462 48.5537C72.9043 51.0856 69.4628 52.5072 65.875 52.5072C62.2872 52.5072 58.8457 51.0856 56.3037 48.5537L50.375 42.6249L56.3037 36.6962C58.8457 34.1643 62.2872 32.7427 65.875 32.7427C69.4628 32.7427 72.9043 34.1643 75.4462 36.6962Z" stroke="#634C39" stroke-width="4.16667" stroke-linecap="round" stroke-linejoin="round"/>
</svg>
