<svg width="44" height="44" viewBox="0 0 44 44" fill="none" xmlns="http://www.w3.org/2000/svg">
<mask id="mask0_130_48" style="mask-type:alpha" maskUnits="userSpaceOnUse" x="0" y="0" width="44" height="44">
<rect width="44" height="44" fill="#D9D9D9"/>
</mask>
<g mask="url(#mask0_130_48)">
<path d="M7.33333 36.6667C6.325 36.6667 5.4618 36.3076 4.74375 35.5896C4.02569 34.8715 3.66667 34.0083 3.66667 33V11C3.66667 9.99168 4.02569 9.12848 4.74375 8.41043C5.4618 7.69237 6.325 7.33334 7.33333 7.33334H36.6667C37.675 7.33334 38.5382 7.69237 39.2563 8.41043C39.9743 9.12848 40.3333 9.99168 40.3333 11V33C40.3333 34.0083 39.9743 34.8715 39.2563 35.5896C38.5382 36.3076 37.675 36.6667 36.6667 36.6667H7.33333ZM22 23.8333L7.33333 14.6667V33H36.6667V14.6667L22 23.8333ZM22 20.1667L36.6667 11H7.33333L22 20.1667ZM7.33333 14.6667V11V33V14.6667Z" fill="#F5F5F5"/>
</g>
</svg>
