<svg width="93" height="93" viewBox="0 0 93 93" fill="none" xmlns="http://www.w3.org/2000/svg">
<path d="M7.75 85.25C7.75 78.0812 8.70325 71.9626 10.6098 66.8941C12.5163 61.8256 14.9523 57.6109 17.918 54.25C20.8888 50.8917 24.2149 48.2915 27.8961 46.4496C31.5774 44.6077 35.1953 43.3328 38.75 42.625V31C29.9021 29.9021 22.5228 27.1728 16.6121 22.8121C10.7015 18.4515 7.74742 13.4307 7.75 7.75H85.25C85.25 13.4333 82.2947 18.4553 76.384 22.816C70.4733 27.1767 63.0953 29.9047 54.25 31V42.625C57.8021 43.3354 61.4187 44.6116 65.1 46.4535C68.7812 48.2954 72.1073 50.8942 75.0781 54.25C78.049 57.6083 80.4876 61.823 82.3941 66.8941C84.3006 71.9652 85.2526 78.0838 85.25 85.25H62V77.5H77.0156C75.8531 67.6833 72.1874 60.5792 66.0184 56.1875C59.8494 51.7958 53.3433 49.6 46.5 49.6C39.6542 49.6 33.1468 51.7958 26.9778 56.1875C20.8088 60.5792 17.1443 67.6833 15.9844 77.5H31V85.25H7.75ZM46.5 23.7344C52.3771 23.7344 57.6083 22.9426 62.1937 21.359C66.7792 19.7754 70.4281 17.8224 73.1406 15.5H19.8594C22.5719 17.825 26.2208 19.7793 30.8063 21.3629C35.3917 22.9465 40.6229 23.737 46.5 23.7344ZM46.5 85.25C44.3688 85.25 42.5436 84.4905 41.0246 82.9715C39.5056 81.4525 38.7474 79.6287 38.75 77.5C38.75 76.4021 38.9605 75.401 39.3816 74.4969C39.8027 73.5927 40.3672 72.7854 41.075 72.075C42.625 70.525 45.2406 68.8936 48.9219 67.1809C52.6031 65.4681 56.9625 63.7412 62 62C60.1917 67.0375 58.4479 71.3969 56.7687 75.0781C55.0896 78.7594 53.475 81.375 51.925 82.925C51.2146 83.6354 50.4073 84.2012 49.5031 84.6222C48.599 85.0433 47.5979 85.2526 46.5 85.25Z" fill="#634C39"/>
</svg>
