<svg width="24" height="24" viewBox="0 0 24 24" fill="none" xmlns="http://www.w3.org/2000/svg">
<mask id="mask0_45_41" style="mask-type:alpha" maskUnits="userSpaceOnUse" x="0" y="0" width="24" height="24">
<rect width="24" height="24" fill="#D9D9D9"/>
</mask>
<g mask="url(#mask0_45_41)">
<path d="M5 20.9927C4.45 20.9927 3.97917 20.7988 3.5875 20.4112C3.19583 20.0235 3 19.5575 3 19.0131V7.13571C3 6.59133 3.19583 6.12531 3.5875 5.73765C3.97917 5.34998 4.45 5.15615 5 5.15615H7C7 4.06739 7.39167 3.13534 8.175 2.36002C8.95833 1.58469 9.9 1.19702 11 1.19702C12.1 1.19702 13.0417 1.58469 13.825 2.36002C14.6083 3.13534 15 4.06739 15 5.15615H17C17.55 5.15615 18.0208 5.34998 18.4125 5.73765C18.8042 6.12531 19 6.59133 19 7.13571V19.0131C19 19.5575 18.8042 20.0235 18.4125 20.4112C18.0208 20.7988 17.55 20.9927 17 20.9927H5ZM5 19.0131H17V7.13571H15V9.11528C15 9.39571 14.9042 9.63079 14.7125 9.8205C14.5208 10.0102 14.2833 10.1051 14 10.1051C13.7167 10.1051 13.4792 10.0102 13.2875 9.8205C13.0958 9.63079 13 9.39571 13 9.11528V7.13571H9V9.11528C9 9.39571 8.90417 9.63079 8.7125 9.8205C8.52083 10.0102 8.28333 10.1051 8 10.1051C7.71667 10.1051 7.47917 10.0102 7.2875 9.8205C7.09583 9.63079 7 9.39571 7 9.11528V7.13571H5V19.0131ZM9 5.15615H13C13 4.61177 12.8042 4.14575 12.4125 3.75808C12.0208 3.37042 11.55 3.17659 11 3.17659C10.45 3.17659 9.97917 3.37042 9.5875 3.75808C9.19583 4.14575 9 4.61177 9 5.15615Z" fill="#634C39"/>
</g>
</svg>
