<svg width="43" height="44" viewBox="0 0 43 44" fill="none" xmlns="http://www.w3.org/2000/svg">
<path d="M31.3507 25.8907C30.8161 25.6225 28.1859 24.33 27.6963 24.1499C27.2048 23.9717 26.8484 23.8835 26.4901 24.42C26.1355 24.9546 25.1094 26.159 24.7979 26.5154C24.4865 26.8737 24.1733 26.9169 23.6386 26.6504C23.1039 26.3804 21.3793 25.8169 19.3361 23.9951C17.7465 22.5765 16.6718 20.8249 16.3603 20.2885C16.0489 19.7538 16.3279 19.464 16.5944 19.1975C16.8356 18.9581 17.1308 18.5729 17.3973 18.2614C17.6655 17.9482 17.7537 17.725 17.9337 17.3667C18.1119 17.0103 18.0237 16.6989 17.8887 16.4306C17.7537 16.1624 16.6844 13.5287 16.2397 12.4576C15.8041 11.4152 15.363 11.5574 15.0354 11.5394C14.6935 11.5258 14.3514 11.5198 14.0093 11.5214C13.6528 11.5214 13.0731 11.6547 12.5835 12.1911C12.0938 12.7258 10.7113 14.0201 10.7113 16.6538C10.7113 19.2858 12.6285 21.8295 12.8949 22.1877C13.1632 22.5441 16.6682 27.9484 22.0346 30.2653C23.311 30.8161 24.3065 31.1456 25.0842 31.3904C26.3659 31.799 27.5325 31.7414 28.4524 31.6028C29.4803 31.4498 31.6172 30.3085 32.0636 29.0591C32.5101 27.8098 32.5101 26.7386 32.375 26.5154C32.2418 26.2922 31.8872 26.159 31.3507 25.8907ZM21.59 39.2177H21.5828C18.396 39.218 15.2678 38.3612 12.5259 36.737L11.876 36.3518L5.14141 38.1196L6.93802 31.5524L6.51497 30.8791C4.73355 28.0425 3.79114 24.7596 3.79665 21.41C3.79845 11.5988 11.7824 3.6167 21.5972 3.6167C26.3497 3.6167 30.8179 5.47092 34.1771 8.83372C35.8345 10.4838 37.1482 12.4463 38.0421 14.6074C38.9361 16.7686 39.3925 19.0856 39.3851 21.4244C39.3797 31.2356 31.3975 39.2177 21.59 39.2177ZM36.7352 6.27922C34.7517 4.28264 32.3917 2.69956 29.7919 1.62171C27.1921 0.543853 24.4043 -0.00733811 21.59 7.37683e-05C9.78956 7.37683e-05 0.185422 9.60421 0.180021 21.4082C0.180021 25.1815 1.16474 28.8647 3.03876 32.1105L0 43.2052L11.3503 40.2276C14.4892 41.9377 18.0065 42.8339 21.581 42.8344H21.59C33.3886 42.8344 42.9945 33.2302 42.9999 21.4244C43.0086 18.6112 42.4594 15.8241 41.3841 13.2245C40.3088 10.6249 38.7286 8.26426 36.7352 6.27922Z" fill="#F5F5F5"/>
</svg>
